<?xml version="1.0" encoding="UTF-8" standalone="no"?>
<!-- Created with Inkscape (http://www.inkscape.org/) -->

<svg
   xmlns:dc="http://purl.org/dc/elements/1.1/"
   xmlns:cc="http://creativecommons.org/ns#"
   xmlns:rdf="http://www.w3.org/1999/02/22-rdf-syntax-ns#"
   xmlns:svg="http://www.w3.org/2000/svg"
   xmlns="http://www.w3.org/2000/svg"
   xmlns:sodipodi="http://sodipodi.sourceforge.net/DTD/sodipodi-0.dtd"
   xmlns:inkscape="http://www.inkscape.org/namespaces/inkscape"
   width="162"
   height="162"
   viewBox="0 0 42.862501 42.862501"
   version="1.1"
   id="svg8"
   inkscape:version="0.92.1 r15371"
   sodipodi:docname="logo.svg">
  <defs
     id="defs2" />
  <sodipodi:namedview
     id="base"
     pagecolor="#ffffff"
     bordercolor="#666666"
     borderopacity="1.0"
     inkscape:pageopacity="0.0"
     inkscape:pageshadow="2"
     inkscape:zoom="2.8"
     inkscape:cx="77.567948"
     inkscape:cy="54.014415"
     inkscape:document-units="mm"
     inkscape:current-layer="layer3"
     showgrid="true"
     inkscape:window-width="1198"
     inkscape:window-height="698"
     inkscape:window-x="2"
     inkscape:window-y="64"
     inkscape:window-maximized="0"
     showguides="true"
     inkscape:guide-bbox="true"
     fit-margin-top="0"
     fit-margin-left="0"
     fit-margin-right="0"
     fit-margin-bottom="0"
     units="px">
    <inkscape:grid
       type="xygrid"
       id="grid4566"
       originx="58.923829"
       originy="-141.63509" />
  </sodipodi:namedview>
  <metadata
     id="metadata5">
    <rdf:RDF>
      <cc:Work
         rdf:about="">
        <dc:format>image/svg+xml</dc:format>
        <dc:type
           rdf:resource="http://purl.org/dc/dcmitype/StillImage" />
        <dc:title></dc:title>
      </cc:Work>
    </rdf:RDF>
  </metadata>
  <g
     inkscape:groupmode="layer"
     id="layer3"
     inkscape:label="penna"
     style="display:inline;opacity:1"
     transform="translate(58.923828,-112.50242)">
    <circle
       style="opacity:1;fill:#ffffff;fill-opacity:1;fill-rule:nonzero;stroke:none;stroke-width:2.64583302;stroke-linecap:round;stroke-linejoin:round;stroke-miterlimit:4;stroke-dasharray:none;stroke-dashoffset:0;stroke-opacity:1;paint-order:normal"
       id="path4669"
       cx="-37.492577"
       cy="133.93367"
       r="21.355656" />
    <g
       id="g4667"
       transform="rotate(-30,-64.039674,138.11589)">
      <path
         transform="matrix(0.26458333,0,0,0.26458333,-1.6666667e-7,-1.0416666e-6)"
         inkscape:connector-curvature="0"
         id="path4588"
         d="m -148.92773,512.51953 a 44.999997,44.999997 0 0 0 -43.5918,34 H -167 v -9 h -10.63281 a 35.000001,35.000001 0 0 1 28.70508,-15 35.000001,35.000001 0 0 1 29.41992,16.04492 c 4.60217,3.62562 9.2574,6.38941 14.24414,8.29297 a 44.999997,44.999997 0 0 0 -43.66406,-34.33789 z m 43.66796,55.66016 c -5.01581,1.91412 -9.69594,4.70122 -14.32421,8.35742 a 35.000001,35.000001 0 0 1 -29.34375,15.98242 35.000001,35.000001 0 0 1 -28.67188,-15 H -167 v -9 h -25.50586 a 44.999997,44.999997 0 0 0 43.57813,34 44.999997,44.999997 0 0 0 43.66796,-34.33984 z"
         style="display:inline;opacity:1;fill:#000000;fill-opacity:1;fill-rule:nonzero;stroke:none;stroke-width:9.99999905;stroke-linecap:round;stroke-linejoin:round;stroke-miterlimit:4;stroke-dasharray:none;stroke-dashoffset:0;stroke-opacity:1;paint-order:normal" />
      <path
         inkscape:connector-curvature="0"
         d="m -43.656253,152.27292 3e-6,-9.525 c 0,-0.79375 2.11667,-0.79375 2.11667,0 l -3e-6,9.525 c 0,0.79375 -2.11667,0.79375 -2.11667,0 z m 9.789587,-11.37713 c -1.852084,3.17504 -3.175,3.17504 -7.14375,3.175 v 6.87917 c 3.96875,0 5.291666,4e-5 7.14375,3.175 0.79375,-2.64583 7.408333,-6.08542 14.022916,-6.08542 0.172448,0 0.287731,-0.11305 0.347783,-0.26458 h -12.289172 c -0.120507,0.46672 -0.541165,0.79305 -1.023194,0.79375 -0.584502,0 -1.058333,-0.47383 -1.058333,-1.05834 0,-0.5845 0.473831,-1.05833 1.058333,-1.05833 0.482219,5.3e-4 0.903155,0.32684 1.02371,0.79375 h 12.288656 c -0.06005,-0.15153 -0.175335,-0.26458 -0.347783,-0.26458 -6.614583,0 -13.229166,-3.43958 -14.022916,-6.08542 z m -23.547917,5.55629 h 12.435416 c 0.79375,0 0.79375,2.11667 0,2.11667 h -12.435416 c -0.79375,0 -0.79375,-2.11667 0,-2.11667 z"
         style="opacity:1;fill:#fda430;fill-opacity:1;fill-rule:nonzero;stroke:none;stroke-width:2.64583325;stroke-linecap:round;stroke-linejoin:round;stroke-miterlimit:4;stroke-dasharray:none;stroke-dashoffset:0;stroke-opacity:1;paint-order:normal"
         id="rect4606-6" />
    </g>
  </g>
</svg>
